<svg width="179" height="178" viewBox="0 0 179 178" fill="none" xmlns="http://www.w3.org/2000/svg">
<path d="M13.396 115.756C10.948 115.756 8.704 115.144 6.664 113.92C4.66933 112.651 3.06 110.996 1.836 108.956C0.612 106.871 0 104.581 0 102.088L0.068 80.532C0.068 78.0387 0.657333 75.772 1.836 73.732C3.06 71.692 4.692 70.06 6.732 68.836C8.772 67.612 10.9933 67 13.396 67C15.844 67 18.0653 67.612 20.06 68.836C22.0547 70.06 23.6413 71.692 24.82 73.732C26.044 75.772 26.656 78.0387 26.656 80.532L26.724 102.088C26.724 104.581 26.112 106.871 24.888 108.956C23.7093 110.996 22.1 112.651 20.06 113.92C18.0653 115.144 15.844 115.756 13.396 115.756ZM13.396 107.528C14.756 107.528 15.9347 106.984 16.932 105.896C17.9747 104.763 18.496 103.493 18.496 102.088L18.428 80.532C18.428 79.036 17.952 77.7667 17 76.724C16.048 75.6813 14.8467 75.16 13.396 75.16C11.9907 75.16 10.7893 75.6813 9.792 76.724C8.79467 77.7213 8.296 78.9907 8.296 80.532V102.088C8.296 103.584 8.79467 104.876 9.792 105.964C10.7893 107.007 11.9907 107.528 13.396 107.528Z" fill="black"/>
<path d="M28.0861 115.076C27.9048 115.076 27.8141 114.963 27.8141 114.736L27.9501 68.02C27.9501 67.8387 28.0408 67.748 28.2221 67.748H41.9581C44.4061 67.748 46.6501 68.36 48.6901 69.584C50.7755 70.7627 52.4301 72.372 53.6541 74.412C54.8781 76.4067 55.4901 78.6733 55.4901 81.212C55.4901 82.8893 55.2408 84.408 54.7421 85.768C54.2435 87.0827 53.6541 88.216 52.9741 89.168C52.2941 90.0747 51.6821 90.7547 51.1381 91.208C53.5861 93.928 54.8101 97.124 54.8101 100.796L54.8781 114.736C54.8781 114.963 54.7648 115.076 54.5381 115.076H46.8541C46.6728 115.076 46.5821 115.008 46.5821 114.872V100.796C46.5821 99.164 45.9928 97.7587 44.8141 96.58C43.6808 95.356 42.2755 94.744 40.5981 94.744H36.1101L36.0421 114.736C36.0421 114.963 35.9515 115.076 35.7701 115.076H28.0861ZM36.1101 86.584H41.9581C43.3635 86.584 44.6101 86.0627 45.6981 85.02C46.7861 83.9773 47.3301 82.708 47.3301 81.212C47.3301 79.7613 46.7861 78.5147 45.6981 77.472C44.6555 76.4293 43.4088 75.908 41.9581 75.908H36.1101V86.584Z" fill="black"/>
<path d="M56.8788 115.076C56.6521 115.076 56.5388 114.963 56.5388 114.736L56.6068 68.02C56.6068 67.8387 56.6975 67.748 56.8788 67.748H64.4948C64.6761 67.748 64.7668 67.8387 64.7668 68.02L64.8348 114.736C64.8348 114.963 64.7441 115.076 64.5628 115.076H56.8788Z" fill="black"/>
<path d="M79.1802 115.756C76.7322 115.756 74.5108 115.144 72.5162 113.92C70.5215 112.696 68.9122 111.064 67.6882 109.024C66.5095 106.939 65.9202 104.627 65.9202 102.088V80.532C65.9202 78.084 66.5095 75.84 67.6882 73.8C68.9122 71.7147 70.5215 70.06 72.5162 68.836C74.5562 67.612 76.7775 67 79.1802 67C81.6735 67 83.9175 67.612 85.9122 68.836C87.9522 70.0147 89.5615 71.624 90.7402 73.664C91.9188 75.704 92.5082 77.9933 92.5082 80.532V83.66C92.5082 83.8413 92.3948 83.932 92.1682 83.932H84.5522C84.3708 83.932 84.2802 83.8413 84.2802 83.66V81.076C84.2802 79.3533 83.7815 77.9253 82.7842 76.792C81.8322 75.6587 80.6308 75.092 79.1802 75.092C77.8655 75.092 76.6868 75.636 75.6442 76.724C74.6468 77.812 74.1482 79.0813 74.1482 80.532V102.088C74.1482 103.584 74.6468 104.876 75.6442 105.964C76.6415 107.007 77.8202 107.528 79.1802 107.528C80.6308 107.528 81.8322 107.007 82.7842 105.964C83.7815 104.921 84.2802 103.629 84.2802 102.088V98.756H79.5202C79.2935 98.756 79.1802 98.6427 79.1802 98.416V90.8C79.1802 90.5733 79.2935 90.46 79.5202 90.46H92.2362C92.4175 90.46 92.5082 90.5733 92.5082 90.8V102.088C92.5082 104.627 91.8962 106.939 90.6722 109.024C89.4935 111.064 87.9068 112.696 85.9122 113.92C83.9175 115.144 81.6735 115.756 79.1802 115.756Z" fill="black"/>
<path d="M93.6094 115.076C93.3828 115.076 93.2694 114.963 93.2694 114.736L93.3374 68.02C93.3374 67.8387 93.4281 67.748 93.6094 67.748H101.225C101.407 67.748 101.497 67.8387 101.497 68.02L101.565 114.736C101.565 114.963 101.475 115.076 101.293 115.076H93.6094Z" fill="black"/>
<path d="M104.079 115.076C103.716 115.076 103.535 114.917 103.535 114.6L103.467 68.292C103.467 67.9293 103.648 67.748 104.011 67.748H110.131L121.623 94.54L121.283 68.292C121.283 67.9293 121.487 67.748 121.895 67.748H128.627C128.899 67.748 129.035 67.9293 129.035 68.292L129.103 114.668C129.103 114.94 128.989 115.076 128.763 115.076H122.779L111.015 90.052L111.491 114.532C111.491 114.895 111.287 115.076 110.879 115.076H104.079Z" fill="black"/>
<path d="M128.618 114.736L137.05 68.02C137.095 67.8387 137.208 67.748 137.39 67.748H147.25C147.431 67.748 147.544 67.8387 147.59 68.02L155.682 114.736C155.727 114.963 155.636 115.076 155.41 115.076H147.862C147.68 115.076 147.567 114.963 147.522 114.736L146.774 109.772H137.526L136.778 114.736C136.732 114.963 136.619 115.076 136.438 115.076H128.89C128.708 115.076 128.618 114.963 128.618 114.736ZM138.886 102.496H145.414L142.626 83.388L142.218 80.872L141.946 83.388L138.886 102.496Z" fill="black"/>
<path d="M156.141 115.076C155.96 115.076 155.869 114.963 155.869 114.736L155.937 68.02C155.937 67.8387 156.028 67.748 156.209 67.748H178.037C178.219 67.748 178.309 67.8613 178.309 68.088V75.704C178.309 75.8853 178.219 75.976 178.037 75.976H164.097V86.584H178.037C178.219 86.584 178.309 86.6747 178.309 86.856L178.377 94.54C178.377 94.7213 178.287 94.812 178.105 94.812H164.097V106.712H178.105C178.287 106.712 178.377 106.825 178.377 107.052V114.804C178.377 114.985 178.287 115.076 178.105 115.076H156.141Z" fill="black"/>
</svg>
