<svg width="24" height="24" viewBox="0 0 24 24" fill="none" xmlns="http://www.w3.org/2000/svg">
<path d="M21 7.35296V16.647C21.0001 16.7541 20.9714 16.8593 20.9171 16.9516C20.8627 17.0439 20.7847 17.12 20.691 17.172L12.291 21.838C12.202 21.8873 12.1018 21.9133 12 21.9133C11.8982 21.9133 11.798 21.8873 11.709 21.838L3.309 17.172C3.21532 17.12 3.13725 17.0439 3.08292 16.9516C3.02858 16.8593 2.99995 16.7541 3 16.647V7.35296C3.00013 7.24601 3.02884 7.14103 3.08317 7.0489C3.1375 6.95677 3.21547 6.88083 3.309 6.82896L11.709 2.16196C11.798 2.11258 11.8982 2.08667 12 2.08667C12.1018 2.08667 12.202 2.11258 12.291 2.16196L20.691 6.82896C20.7845 6.88083 20.8625 6.95677 20.9168 7.0489C20.9712 7.14103 20.9999 7.24601 21 7.35296Z" stroke="#979797" stroke-width="1.5" stroke-linecap="round" stroke-linejoin="round"/>
<path d="M3.52832 7.29408L11.7083 11.8381C11.7975 11.8876 11.8978 11.9136 11.9998 11.9136C12.1018 11.9136 12.2022 11.8876 12.2913 11.8381L20.5003 7.27808M12.0003 21.0001V12.0001" stroke="#979797" stroke-width="1.5" stroke-linecap="round" stroke-linejoin="round"/>
</svg>
