<svg width="36" height="36" viewBox="0 0 36 36" fill="none" xmlns="http://www.w3.org/2000/svg">
<path d="M29.264 29.2688H24.5248V21.8448C24.5248 20.0736 24.488 17.7952 22.0544 17.7952C19.584 17.7952 19.2064 19.7216 19.2064 21.7136V29.2688H14.4688V14H19.0192V16.08H19.0816C19.7168 14.88 21.264 13.616 23.5744 13.616C28.376 13.616 29.264 16.7744 29.264 20.888V29.2688ZM9.1152 11.9104C7.5888 11.9104 6.3632 10.6768 6.3632 9.1584C6.3632 7.64 7.5904 6.4064 9.1152 6.4064C9.84508 6.4064 10.5451 6.69634 11.0612 7.21244C11.5773 7.72854 11.8672 8.42852 11.8672 9.1584C11.8672 9.88828 11.5773 10.5883 11.0612 11.1044C10.5451 11.6205 9.84508 11.9104 9.1152 11.9104ZM11.4896 29.2704H6.7376V14H11.4896V29.2704ZM31.6352 2H4.3616C3.056 2 2 3.032 2 4.304V31.696C2 32.968 3.056 34 4.3616 34H31.6288C32.9328 34 34 32.9696 34 31.696V4.304C34 3.0336 32.9328 2 31.6288 2H31.6352Z" fill="white"/>
</svg>
