<svg width="36" height="36" viewBox="0 0 36 36" fill="none" xmlns="http://www.w3.org/2000/svg">
<path fill-rule="evenodd" clip-rule="evenodd" d="M18 3C9.7155 3 3 9.7155 3 18C3 20.835 3.7875 23.49 5.157 25.752L3.819 30.3C3.74218 30.5611 3.73712 30.8381 3.80437 31.1019C3.87161 31.3656 4.00867 31.6064 4.20114 31.7989C4.39361 31.9913 4.63437 32.1284 4.89812 32.1956C5.16188 32.2629 5.43888 32.2578 5.7 32.181L10.248 30.843C12.5861 32.2574 15.2674 33.0035 18 33C26.2845 33 33 26.2845 33 18C33 9.7155 26.2845 3 18 3ZM14.607 21.3945C17.6415 24.4275 20.538 24.828 21.561 24.8655C23.1165 24.9225 24.6315 23.7345 25.221 22.356C25.2948 22.1844 25.3215 21.9962 25.2983 21.8108C25.2751 21.6255 25.2028 21.4496 25.089 21.3015C24.267 20.2515 23.1555 19.497 22.0695 18.747C21.8429 18.5899 21.5641 18.5267 21.2919 18.5709C21.0197 18.6151 20.7753 18.7632 20.61 18.984L19.71 20.3565C19.6624 20.43 19.5887 20.4827 19.5038 20.5038C19.4188 20.525 19.329 20.5131 19.2525 20.4705C18.642 20.121 17.7525 19.527 17.1135 18.888C16.4745 18.249 15.9165 17.4 15.603 16.8285C15.5651 16.7557 15.5544 16.6717 15.5728 16.5917C15.5912 16.5117 15.6376 16.4409 15.7035 16.392L17.0895 15.363C17.2879 15.1914 17.4159 14.9526 17.4492 14.6924C17.4824 14.4322 17.4184 14.1689 17.2695 13.953C16.5975 12.969 15.8145 11.718 14.679 10.8885C14.5321 10.783 14.3605 10.7172 14.1808 10.6975C14.001 10.6778 13.8192 10.7048 13.653 10.776C12.273 11.367 11.079 12.882 11.136 14.4405C11.1735 15.4635 11.574 18.36 14.607 21.3945Z" fill="white"/>
</svg>
